<svg width="20" height="20" viewBox="0 0 20 20" fill="none" xmlns="http://www.w3.org/2000/svg">
<rect opacity="0.01" width="20" height="20" fill="#D8D8D8"/>
<rect opacity="0.01" width="20" height="20" fill="#D8D8D8"/>
<rect y="2.85693" width="20" height="14.2857" rx="1.71429" fill="white"/>
<mask id="mask0_162810_35374" style="mask-type:alpha" maskUnits="userSpaceOnUse" x="0" y="2" width="20" height="16">
<rect y="2.85693" width="20" height="14.2857" rx="1.71429" fill="white"/>
</mask>
<g mask="url(#mask0_162810_35374)">
<path fill-rule="evenodd" clip-rule="evenodd" d="M20 2.85693H0V3.80931H20V2.85693ZM20 4.7617H0V5.71408H20V4.7617ZM0 6.66646H20V7.61884H0V6.66646ZM20 8.57122H0V9.5236H20V8.57122ZM0 10.476H20V11.4284H0V10.476ZM20 12.3807H0V13.3331H20V12.3807ZM0 14.2855H20V15.2379H0V14.2855ZM20 16.1903H0V17.1426H20V16.1903Z" fill="#D02F44"/>
<rect y="2.85693" width="8.57143" height="6.66667" fill="#46467F"/>
<g filter="url(#filter0_d_162810_35374)">
<path fill-rule="evenodd" clip-rule="evenodd" d="M1.42834 4.76146C1.69133 4.76146 1.90453 4.54827 1.90453 4.28527C1.90453 4.02228 1.69133 3.80908 1.42834 3.80908C1.16535 3.80908 0.952148 4.02228 0.952148 4.28527C0.952148 4.54827 1.16535 4.76146 1.42834 4.76146ZM3.3331 4.76146C3.59609 4.76146 3.80929 4.54827 3.80929 4.28527C3.80929 4.02228 3.59609 3.80908 3.3331 3.80908C3.07011 3.80908 2.85691 4.02228 2.85691 4.28527C2.85691 4.54827 3.07011 4.76146 3.3331 4.76146ZM5.71405 4.28527C5.71405 4.54827 5.50086 4.76146 5.23786 4.76146C4.97487 4.76146 4.76167 4.54827 4.76167 4.28527C4.76167 4.02228 4.97487 3.80908 5.23786 3.80908C5.50086 3.80908 5.71405 4.02228 5.71405 4.28527ZM7.14262 4.76146C7.40562 4.76146 7.61881 4.54827 7.61881 4.28527C7.61881 4.02228 7.40562 3.80908 7.14262 3.80908C6.87963 3.80908 6.66643 4.02228 6.66643 4.28527C6.66643 4.54827 6.87963 4.76146 7.14262 4.76146ZM2.85691 5.23765C2.85691 5.50065 2.64371 5.71384 2.38072 5.71384C2.11773 5.71384 1.90453 5.50065 1.90453 5.23765C1.90453 4.97466 2.11773 4.76146 2.38072 4.76146C2.64371 4.76146 2.85691 4.97466 2.85691 5.23765ZM4.28548 5.71384C4.54847 5.71384 4.76167 5.50065 4.76167 5.23765C4.76167 4.97466 4.54847 4.76146 4.28548 4.76146C4.02249 4.76146 3.80929 4.97466 3.80929 5.23765C3.80929 5.50065 4.02249 5.71384 4.28548 5.71384ZM6.66643 5.23765C6.66643 5.50065 6.45324 5.71384 6.19024 5.71384C5.92725 5.71384 5.71405 5.50065 5.71405 5.23765C5.71405 4.97466 5.92725 4.76146 6.19024 4.76146C6.45324 4.76146 6.66643 4.97466 6.66643 5.23765ZM7.14262 6.66623C7.40562 6.66623 7.61881 6.45303 7.61881 6.19003C7.61881 5.92704 7.40562 5.71384 7.14262 5.71384C6.87963 5.71384 6.66643 5.92704 6.66643 6.19003C6.66643 6.45303 6.87963 6.66623 7.14262 6.66623ZM5.71405 6.19003C5.71405 6.45303 5.50086 6.66623 5.23786 6.66623C4.97487 6.66623 4.76167 6.45303 4.76167 6.19003C4.76167 5.92704 4.97487 5.71384 5.23786 5.71384C5.50086 5.71384 5.71405 5.92704 5.71405 6.19003ZM3.3331 6.66623C3.59609 6.66623 3.80929 6.45303 3.80929 6.19003C3.80929 5.92704 3.59609 5.71384 3.3331 5.71384C3.07011 5.71384 2.85691 5.92704 2.85691 6.19003C2.85691 6.45303 3.07011 6.66623 3.3331 6.66623ZM1.90453 6.19003C1.90453 6.45303 1.69133 6.66623 1.42834 6.66623C1.16535 6.66623 0.952148 6.45303 0.952148 6.19003C0.952148 5.92704 1.16535 5.71384 1.42834 5.71384C1.69133 5.71384 1.90453 5.92704 1.90453 6.19003ZM2.38072 7.61861C2.64371 7.61861 2.85691 7.40541 2.85691 7.14242C2.85691 6.87942 2.64371 6.66623 2.38072 6.66623C2.11773 6.66623 1.90453 6.87942 1.90453 7.14242C1.90453 7.40541 2.11773 7.61861 2.38072 7.61861ZM4.76167 7.14242C4.76167 7.40541 4.54847 7.61861 4.28548 7.61861C4.02249 7.61861 3.80929 7.40541 3.80929 7.14242C3.80929 6.87942 4.02249 6.66623 4.28548 6.66623C4.54847 6.66623 4.76167 6.87942 4.76167 7.14242ZM6.19024 7.61861C6.45324 7.61861 6.66643 7.40541 6.66643 7.14242C6.66643 6.87942 6.45324 6.66623 6.19024 6.66623C5.92725 6.66623 5.71405 6.87942 5.71405 7.14242C5.71405 7.40541 5.92725 7.61861 6.19024 7.61861ZM7.61881 8.0948C7.61881 8.35779 7.40562 8.57099 7.14262 8.57099C6.87963 8.57099 6.66643 8.35779 6.66643 8.0948C6.66643 7.8318 6.87963 7.61861 7.14262 7.61861C7.40562 7.61861 7.61881 7.8318 7.61881 8.0948ZM5.23786 8.57099C5.50086 8.57099 5.71405 8.35779 5.71405 8.0948C5.71405 7.8318 5.50086 7.61861 5.23786 7.61861C4.97487 7.61861 4.76167 7.8318 4.76167 8.0948C4.76167 8.35779 4.97487 8.57099 5.23786 8.57099ZM3.80929 8.0948C3.80929 8.35779 3.59609 8.57099 3.3331 8.57099C3.07011 8.57099 2.85691 8.35779 2.85691 8.0948C2.85691 7.8318 3.07011 7.61861 3.3331 7.61861C3.59609 7.61861 3.80929 7.8318 3.80929 8.0948ZM1.42834 8.57099C1.69133 8.57099 1.90453 8.35779 1.90453 8.0948C1.90453 7.8318 1.69133 7.61861 1.42834 7.61861C1.16535 7.61861 0.952148 7.8318 0.952148 8.0948C0.952148 8.35779 1.16535 8.57099 1.42834 8.57099Z" fill="url(#paint0_linear_162810_35374)"/>
</g>
</g>
<defs>
<filter id="filter0_d_162810_35374" x="0.952148" y="3.80908" width="6.6665" height="5.76172" filterUnits="userSpaceOnUse" color-interpolation-filters="sRGB">
<feFlood flood-opacity="0" result="BackgroundImageFix"/>
<feColorMatrix in="SourceAlpha" type="matrix" values="0 0 0 0 0 0 0 0 0 0 0 0 0 0 0 0 0 0 127 0" result="hardAlpha"/>
<feOffset dy="1"/>
<feColorMatrix type="matrix" values="0 0 0 0 0 0 0 0 0 0 0 0 0 0 0 0 0 0 0.06 0"/>
<feBlend mode="normal" in2="BackgroundImageFix" result="effect1_dropShadow_162810_35374"/>
<feBlend mode="normal" in="SourceGraphic" in2="effect1_dropShadow_162810_35374" result="shape"/>
</filter>
<linearGradient id="paint0_linear_162810_35374" x1="0.952148" y1="3.80908" x2="0.952148" y2="8.57099" gradientUnits="userSpaceOnUse">
<stop stop-color="white"/>
<stop offset="1" stop-color="#F0F0F0"/>
</linearGradient>
</defs>
</svg>
